<?xml version="1.0" encoding="UTF-8"?>
<svg version="1.1" xmlns="http://www.w3.org/2000/svg" width="423" height="84">
<path d="M0 0 C0.56589844 0.49371094 1.13179687 0.98742188 1.71484375 1.49609375 C1.71484375 2.15609375 1.71484375 2.81609375 1.71484375 3.49609375 C3.03484375 4.15609375 4.35484375 4.81609375 5.71484375 5.49609375 C5.71484375 6.15609375 5.71484375 6.81609375 5.71484375 7.49609375 C6.70484375 7.82609375 7.69484375 8.15609375 8.71484375 8.49609375 C14.73499791 17.82108031 16.76405339 27.5177783 15.71484375 38.49609375 C14.08694638 45.02446568 11.25463824 50.80713831 7.71484375 56.49609375 C8.29234375 57.26695313 8.86984375 58.0378125 9.46484375 58.83203125 C10.20734375 59.83492188 10.94984375 60.8378125 11.71484375 61.87109375 C12.45734375 62.86882812 13.19984375 63.8665625 13.96484375 64.89453125 C15.71484375 67.49609375 15.71484375 67.49609375 15.71484375 69.49609375 C13.47233497 70.55738801 11.22335286 71.59490608 8.96484375 72.62109375 C8.01351562 73.07548828 8.01351562 73.07548828 7.04296875 73.5390625 C2.3213538 75.65395253 2.3213538 75.65395253 -0.56640625 74.90234375 C-2.44111411 73.36849186 -3.69248769 71.88509659 -5.03515625 69.87109375 C-5.463125 69.23945312 -5.89109375 68.6078125 -6.33203125 67.95703125 C-6.6465625 67.47492188 -6.96109375 66.9928125 -7.28515625 66.49609375 C-8.661875 66.94662109 -8.661875 66.94662109 -10.06640625 67.40625 C-22.38084105 71.22217255 -22.38084105 71.22217255 -29.28515625 69.49609375 C-30.06117187 69.32980469 -30.8371875 69.16351563 -31.63671875 68.9921875 C-40.25520563 66.87091906 -48.37720878 62.04678217 -53.28515625 54.49609375 C-53.96578125 53.48546875 -54.64640625 52.47484375 -55.34765625 51.43359375 C-59.50703059 43.87109496 -61.66174736 34.05874305 -60.28515625 25.49609375 C-58.35808176 19.19064694 -56.04724602 12.95263682 -52.28515625 7.49609375 C-51.62515625 7.49609375 -50.96515625 7.49609375 -50.28515625 7.49609375 C-49.62515625 6.17609375 -48.96515625 4.85609375 -48.28515625 3.49609375 C-47.62515625 3.49609375 -46.96515625 3.49609375 -46.28515625 3.49609375 C-45.95515625 2.50609375 -45.62515625 1.51609375 -45.28515625 0.49609375 C-31.99774284 -10.08223537 -13.71837893 -9.02833485 0 0 Z M-31.55078125 10.70703125 C-37.6150332 14.95200761 -41.47775988 20.06907858 -43.03515625 27.35546875 C-43.79531451 33.86432385 -42.38145111 39.74583187 -39.28515625 45.49609375 C-33.96339214 51.6581364 -29.52877191 53.74562342 -21.58984375 54.578125 C-19.00441636 54.68792178 -19.00441636 54.68792178 -16.28515625 52.49609375 C-17.11015625 51.52671875 -17.93515625 50.55734375 -18.78515625 49.55859375 C-21.88779072 45.29356383 -21.80605125 41.60086474 -21.28515625 36.49609375 C-17.22997528 36.15178593 -13.32669208 35.94644488 -9.28515625 36.49609375 C-6.66015625 39.49609375 -6.66015625 39.49609375 -5.28515625 42.49609375 C-4.62515625 42.49609375 -3.96515625 42.49609375 -3.28515625 42.49609375 C-1.32441668 34.87999789 0.22811706 27.30809264 -3.56640625 20.04296875 C-10.08937578 10.75081405 -20.70155636 4.9083076 -31.55078125 10.70703125 Z " fill="#028EF8" transform="translate(64.28515625,7.50390625)"/>
<path d="M0 0 C4.29 0 8.58 0 13 0 C13 23.43 13 46.86 13 71 C8.38 71 3.76 71 -1 71 C-1.33 70.34 -1.66 69.68 -2 69 C-2.969375 69.474375 -3.93875 69.94875 -4.9375 70.4375 C-11.75388944 73.30394948 -17.91109058 73.74737796 -24.86328125 71.078125 C-32.27383032 67.33898141 -36.98353644 61.19380738 -39.875 53.5 C-42.41323197 44.23963722 -40.03796732 34.29238917 -35.4140625 26.05859375 C-31.72817442 20.69267381 -27.45214939 18.20294311 -21 17 C-14.59570482 16.35263442 -9.84634902 17.33324431 -4 20 C-3.34 20.66 -2.68 21.32 -2 22 C-1.96241577 21.05362671 -1.96241577 21.05362671 -1.92407227 20.08813477 C-1.80845863 17.24603175 -1.68557684 14.40428917 -1.5625 11.5625 C-1.52318359 10.56927734 -1.48386719 9.57605469 -1.44335938 8.55273438 C-1.38051758 7.13637695 -1.38051758 7.13637695 -1.31640625 5.69140625 C-1.27974854 4.81685791 -1.24309082 3.94230957 -1.20532227 3.04125977 C-1 1 -1 1 0 0 Z M-22 33 C-24.77545087 36.2947837 -25.90395301 39.23162409 -26.4375 43.5 C-25.73378978 49.12968172 -24.15086311 52.74207986 -20.3125 56.9375 C-15.94025931 59.65983854 -14.0785695 59.64489771 -9 59 C-5.25429541 57.63792561 -3.5886853 55.72795925 -1.625 52.375 C0.44440808 47.75275654 0.63553786 43.80331644 -1 39 C-3.26704868 35.25010187 -5.78185006 32.66708211 -9.625 30.5625 C-14.6843113 29.36424206 -17.7334681 30.24453148 -22 33 Z " fill="#7402F1" transform="translate(406,4)"/>
<path d="M0 0 C3.94517362 2.91557953 5.94057545 6.31566889 7.2890625 10.93359375 C7.66210024 14.01576121 7.64080371 17.04752607 7.58203125 20.1484375 C7.57778641 21.00417862 7.57354156 21.85991974 7.56916809 22.74159241 C7.55249039 25.45175795 7.51485955 28.16115623 7.4765625 30.87109375 C7.46150152 32.71808815 7.4478156 34.56509431 7.43554688 36.41210938 C7.40262276 40.91956259 7.35091719 45.42644847 7.2890625 49.93359375 C2.6690625 49.93359375 -1.9509375 49.93359375 -6.7109375 49.93359375 C-7.0409375 49.27359375 -7.3709375 48.61359375 -7.7109375 47.93359375 C-8.27941406 48.22234375 -8.84789062 48.51109375 -9.43359375 48.80859375 C-15.92598816 51.93014565 -20.8204615 53.02776258 -27.8359375 50.74609375 C-32.83511005 48.70185846 -35.74794118 45.37808823 -38.7109375 40.93359375 C-39.63655764 33.57168473 -39.27733261 27.85756578 -34.7109375 21.93359375 C-29.87483216 16.81301163 -23.2616786 15.1301601 -16.39453125 14.75 C-13.49318881 14.74657457 -10.60890226 14.79915209 -7.7109375 14.93359375 C-7.97769954 12.94867733 -7.97769954 12.94867733 -8.7109375 10.93359375 C-12.92443656 9.52909406 -16.86987913 9.25530909 -21.0859375 10.80859375 C-22.87003653 11.85109796 -22.87003653 11.85109796 -23.7109375 13.93359375 C-28.0009375 13.27359375 -32.2909375 12.61359375 -36.7109375 11.93359375 C-35.62636775 5.42617526 -34.41311883 3.17519695 -29.7109375 -1.06640625 C-20.86941818 -6.66002052 -8.66255756 -5.39926533 0 0 Z M-22.7109375 26.93359375 C-24.94913657 29.60499264 -25.7109375 31.0673035 -25.7109375 34.55859375 C-24.84969672 37.08474458 -24.84969672 37.08474458 -22.5859375 38.80859375 C-18.75928254 40.30598047 -16.64984613 40.05899622 -12.7109375 38.93359375 C-9.81347204 36.85497723 -8.06536146 35.35128959 -7.18359375 31.82421875 C-6.93073979 29.87066214 -6.81097026 27.9009046 -6.7109375 25.93359375 C-14.92092293 24.61454958 -14.92092293 24.61454958 -22.7109375 26.93359375 Z " fill="#471CF4" transform="translate(300.7109375,25.06640625)"/>
<path d="M0 0 C1.79244141 0.01740234 1.79244141 0.01740234 3.62109375 0.03515625 C5.41740234 0.04869141 5.41740234 0.04869141 7.25 0.0625 C8.17683594 0.07410156 9.10367188 0.08570312 10.05859375 0.09765625 C10.98450286 3.98240953 11.13828219 7.51291251 11.05078125 11.5 C11.03402344 12.72009766 11.01726562 13.94019531 11 15.19726562 C10.95579419 17.75210158 10.90373349 20.30681391 10.84375 22.86132812 C10.82248047 24.6934082 10.82248047 24.6934082 10.80078125 26.5625 C10.77870605 27.67230225 10.75663086 28.78210449 10.73388672 29.92553711 C11.10866855 33.58684565 12.15890529 35.96389097 14.05859375 39.09765625 C17.53904048 40.83787961 21.36178269 39.97946439 25.05859375 39.09765625 C28.55037929 35.9332256 28.97990279 32.36232567 29.26391602 27.79785156 C29.30057373 26.52006836 29.33723145 25.24228516 29.375 23.92578125 C29.3957811 23.24336365 29.41656219 22.56094604 29.43797302 21.85784912 C29.50311427 19.68788269 29.56218779 17.51780001 29.62109375 15.34765625 C29.66431272 13.87238404 29.70792807 12.39712338 29.75195312 10.921875 C29.85950186 7.31391926 29.95883727 3.70586947 30.05859375 0.09765625 C34.67859375 0.09765625 39.29859375 0.09765625 44.05859375 0.09765625 C45.01345103 5.71348766 45.20464524 11.13796161 45.19140625 16.828125 C45.19236298 17.74096756 45.1933197 18.65381012 45.19430542 19.59431458 C45.1949827 21.51299102 45.19316007 23.43166982 45.18896484 25.3503418 C45.18359157 28.28634766 45.18893469 31.22220185 45.1953125 34.15820312 C45.194652 36.02734409 45.19337143 37.89648495 45.19140625 39.765625 C45.19343048 40.64171921 45.19545471 41.51781342 45.19754028 42.42045593 C45.19281204 43.64741936 45.19281204 43.64741936 45.18798828 44.89916992 C45.18719269 45.61529953 45.18639709 46.33142914 45.18557739 47.06925964 C45.05859375 49.09765625 45.05859375 49.09765625 44.05859375 53.09765625 C39.43859375 53.09765625 34.81859375 53.09765625 30.05859375 53.09765625 C29.72859375 52.10765625 29.39859375 51.11765625 29.05859375 50.09765625 C28.65769531 50.56558594 28.25679687 51.03351563 27.84375 51.515625 C24.53095507 54.45147171 20.35839826 54.75148555 16.05859375 55.09765625 C10.16285597 54.69722319 5.11801245 53.63465362 1.05859375 49.09765625 C-3.36971924 42.04850496 -4.09772479 35.34952885 -4.07421875 27.109375 C-4.07517548 26.36557083 -4.0761322 25.62176666 -4.07711792 24.85542297 C-4.07779471 23.29480911 -4.07597557 21.73419235 -4.07177734 20.17358398 C-4.06638378 17.77516469 -4.07175861 15.37692944 -4.078125 12.97851562 C-4.07746487 11.459635 -4.07618507 9.94075449 -4.07421875 8.421875 C-4.0772551 7.34228767 -4.0772551 7.34228767 -4.08035278 6.2408905 C-4.05124441 0.13450347 -4.05124441 0.13450347 0 0 Z " fill="#0484F5" transform="translate(87.94140625,21.90234375)"/>
<path d="M0 0 C1.65322266 0.01740234 1.65322266 0.01740234 3.33984375 0.03515625 C4.99693359 0.04869141 4.99693359 0.04869141 6.6875 0.0625 C7.54214844 0.07410156 8.39679688 0.08570312 9.27734375 0.09765625 C9.93734375 1.74765625 10.59734375 3.39765625 11.27734375 5.09765625 C11.79296875 4.64390625 12.30859375 4.19015625 12.83984375 3.72265625 C18.00923163 0.27639766 23.06588713 -0.33279984 29.07421875 0.56640625 C35.17331422 2.03711012 38.78200072 5.15231571 42.33203125 10.21875 C44.76867274 15.06182669 44.4098764 20.38517778 44.375 25.6796875 C44.37358505 26.49386642 44.3721701 27.30804535 44.37071228 28.14689636 C44.36513692 30.73468781 44.35258899 33.32239117 44.33984375 35.91015625 C44.33482556 37.66992062 44.33026321 39.42968636 44.32617188 41.18945312 C44.31517556 45.49222119 44.29792796 49.79492381 44.27734375 54.09765625 C39.65734375 54.09765625 35.03734375 54.09765625 30.27734375 54.09765625 C30.26799805 53.02281982 30.25865234 51.9479834 30.24902344 50.84057617 C30.20915961 46.85382597 30.14341202 42.86785045 30.06982422 38.8815918 C30.04159344 37.15610707 30.02038935 35.43049251 30.00634766 33.70483398 C29.98494633 31.22442051 29.93831458 28.74557135 29.88671875 26.265625 C29.88549011 25.4936528 29.88426147 24.7216806 29.88299561 23.92631531 C29.77302866 19.62085629 29.77302866 19.62085629 27.48535156 16.11450195 C24.10088633 14.55586665 20.88505043 14.45342291 17.27734375 15.09765625 C14.23029848 16.84808651 12.61791941 17.86544124 11.66821289 21.30151367 C11.20770998 24.59579214 11.05998901 27.8231369 10.9609375 31.1484375 C10.9401564 31.80724411 10.91937531 32.46605072 10.89796448 33.14482117 C10.83298886 35.2331681 10.773828 37.32163237 10.71484375 39.41015625 C10.67160896 40.83269405 10.62799315 42.25522031 10.58398438 43.67773438 C10.47664966 47.15092359 10.37719201 50.62421158 10.27734375 54.09765625 C5.65734375 54.09765625 1.03734375 54.09765625 -3.72265625 54.09765625 C-3.74729657 46.56795493 -3.76548766 39.03827686 -3.77758789 31.50854492 C-3.78262995 28.94473868 -3.78946339 26.38093534 -3.7980957 23.81713867 C-3.81016689 20.14110604 -3.81588567 16.46511127 -3.8203125 12.7890625 C-3.82547379 11.63491348 -3.83063507 10.48076447 -3.83595276 9.29164124 C-3.83602829 8.23061691 -3.83610382 7.16959259 -3.83618164 6.07641602 C-3.83840225 5.13709732 -3.84062286 4.19777863 -3.84291077 3.22999573 C-3.66048853 -0.00469479 -3.27411255 0.11743589 0 0 Z " fill="#6206F6" transform="translate(317.72265625,20.90234375)"/>
<path d="M0 0 C14.52 0 29.04 0 44 0 C44 12.35384615 44 12.35384615 40.0625 16.5 C39.2478125 17.39332031 38.433125 18.28664063 37.59375 19.20703125 C36.7378125 20.12871094 35.881875 21.05039062 35 22 C33.32253421 24.03848002 31.69759723 26.1144303 30.0625 28.1875 C28.75809496 29.83238466 27.41706502 31.45111498 26 33 C25.34 33 24.68 33 24 33 C23.87625 33.639375 23.7525 34.27875 23.625 34.9375 C23.315625 35.9584375 23.315625 35.9584375 23 37 C22.01 37.495 22.01 37.495 21 38 C20.67 38.99 20.34 39.98 20 41 C20.69150146 40.99476318 21.38300293 40.98952637 22.09545898 40.98413086 C25.20946352 40.963425 28.32345361 40.95036037 31.4375 40.9375 C32.52611328 40.92912109 33.61472656 40.92074219 34.73632812 40.91210938 C35.77080078 40.90888672 36.80527344 40.90566406 37.87109375 40.90234375 C38.82943115 40.89710693 39.78776855 40.89187012 40.77514648 40.88647461 C43 41 43 41 44 42 C44 45.63 44 49.26 44 53 C29.15 53 14.3 53 -1 53 C-2.41456016 47.34175935 -2.41456016 47.34175935 -2 44 C-0.2421875 41.38671875 -0.2421875 41.38671875 2.125 38.6875 C5.56103175 34.69412767 8.77851121 30.67100544 11.80859375 26.36328125 C12.39833984 25.68845703 12.39833984 25.68845703 13 25 C13.66 25 14.32 25 15 25 C15.3403125 24.195625 15.3403125 24.195625 15.6875 23.375 C17 21 17 21 19.5625 17.9375 C22.13537799 15.19794312 22.13537799 15.19794312 23 12 C22.01 12.33 21.02 12.66 20 13 C16.81627845 13.22527225 13.62839133 13.18514162 10.4375 13.1875 C9.56158203 13.19974609 8.68566406 13.21199219 7.78320312 13.22460938 C6.52733398 13.22750977 6.52733398 13.22750977 5.24609375 13.23046875 C4.09645142 13.23663208 4.09645142 13.23663208 2.92358398 13.24291992 C1 13 1 13 -1 11 C-1.2226431 6.99242418 -0.97796553 3.9118621 0 0 Z " fill="#0471F5" transform="translate(160,22)"/>
<path d="M0 0 C4.62 0 9.24 0 14 0 C14 19.14 14 38.28 14 58 C25.55 58 37.1 58 49 58 C49 62.29 49 66.58 49 71 C32.83 71 16.66 71 0 71 C0 47.57 0 24.14 0 0 Z " fill="#1C52FB" transform="translate(210,4)"/>
<path d="M0 0 C4.62 0 9.24 0 14 0 C14 17.49 14 34.98 14 53 C9.38 53 4.76 53 0 53 C0 35.51 0 18.02 0 0 Z " fill="#0181FB" transform="translate(139,22)"/>
<path d="M0 0 C3.3 0 6.6 0 10 0 C10 16.5 10 33 10 50 C6.7 50 3.4 50 0 50 C0 49.34 0 48.68 0 48 C-0.66 47.67 -1.32 47.34 -2 47 C-1.34 47 -0.68 47 0 47 C-0.495 45.515 -0.495 45.515 -1 44 C-1.99 43.67 -2.98 43.34 -4 43 C-4 43.66 -4 44.32 -4 45 C-4.66 45 -5.32 45 -6 45 C-6 42.69 -6 40.38 -6 38 C-4.68 37.34 -3.36 36.68 -2 36 C-2 35.01 -2 34.02 -2 33 C-1.34 33 -0.68 33 0 33 C0 22.11 0 11.22 0 0 Z " fill="#0184FC" transform="translate(120,24)"/>
<path d="M0 0 C14.19 0 28.38 0 43 0 C43 2.31 43 4.62 43 7 C42.34 7 41.68 7 41 7 C41 8.32 41 9.64 41 11 C40.01 11 39.02 11 38 11 C37.67 11.99 37.34 12.98 37 14 C31.62857143 18 31.62857143 18 29 18 C27.37485532 19.45833358 27.37485532 19.45833358 26 21 C26 19.68 26 18.36 26 17 C25.34 17 24.68 17 24 17 C24.75 12.25 24.75 12.25 27 10 C14.13 9.505 14.13 9.505 1 9 C-1 3 -1 3 0 0 Z " fill="#037BF9" transform="translate(160,23)"/>
<path d="M0 0 C4.62 0 9.24 0 14 0 C14 19.14 14 38.28 14 58 C25.55 58 37.1 58 49 58 C49 62.29 49 66.58 49 71 C32.83 71 16.66 71 0 71 C0 47.57 0 24.14 0 0 Z M2 1 C0.69175539 2.08325599 0.69175539 2.08325599 0.87974548 4.70179749 C0.88196609 5.90758957 0.88418671 7.11338165 0.88647461 8.35571289 C0.88632858 9.01910172 0.88618256 9.68249054 0.8860321 10.36598206 C0.88673119 12.56823956 0.89452335 14.77041345 0.90234375 16.97265625 C0.90420794 18.49580336 0.90563184 20.01895107 0.90663147 21.542099 C0.91045654 25.55837651 0.92028672 29.57461808 0.93133545 33.59088135 C0.9433445 38.40579739 0.94795186 43.22072544 0.95378876 48.03565216 C0.96349849 55.35712647 0.98265509 62.67852185 1 70 C15.85 70 30.7 70 46 70 C47.59628479 67.18010841 47.59628479 67.18010841 47 60 C35.78 60 24.56 60 13 60 C13 40.53 13 21.06 13 1 C9.37 1 5.74 1 2 1 Z " fill="#1E52AA" transform="translate(210,4)"/>
<path d="M0 0 C4.62 0 9.24 0 14 0 C14.95485728 5.61583141 15.14605149 11.04030536 15.1328125 16.73046875 C15.13424759 18.09973259 15.13424759 18.09973259 15.13571167 19.49665833 C15.13638895 21.41533477 15.13456632 23.33401357 15.13037109 25.25268555 C15.12499782 28.18869141 15.13034094 31.1245456 15.13671875 34.06054688 C15.13605825 35.92968784 15.13477768 37.7988287 15.1328125 39.66796875 C15.13483673 40.54406296 15.13686096 41.42015717 15.13894653 42.32279968 C15.13579437 43.1407753 15.13264221 43.95875092 15.12939453 44.80151367 C15.12859894 45.51764328 15.12780334 46.23377289 15.12698364 46.97160339 C15 49 15 49 14 53 C9.38 53 4.76 53 0 53 C0 52.01 0 51.02 0 50 C0.66 50 1.32 50 2 50 C2 50.66 2 51.32 2 52 C5.3 52 8.6 52 12 52 C12 35.5 12 19 12 2 C8.7 2 5.4 2 2 2 C2 12.89 2 23.78 2 35 C1.34 35 0.68 35 0 35 C0 35.99 0 36.98 0 38 C-1.75 39.75 -1.75 39.75 -4 41 C-6.25 40.6875 -6.25 40.6875 -8 40 C-7.21625 39.62875 -6.4325 39.2575 -5.625 38.875 C-2.27325385 36.48089561 -2.01847359 34.95098507 -1 31 C-0.77854101 28.55038546 -0.6469007 26.09166162 -0.5859375 23.6328125 C-0.56657135 22.95322479 -0.5472052 22.27363708 -0.5272522 21.57345581 C-0.46794901 19.42409421 -0.42127109 17.27467759 -0.375 15.125 C-0.33677468 13.6588321 -0.29772036 12.19268557 -0.2578125 10.7265625 C-0.16074273 7.15115918 -0.08078854 3.57595576 0 0 Z " fill="#0E5EA0" transform="translate(118,22)"/>
<path d="M0 0 C1.65322266 0.01740234 1.65322266 0.01740234 3.33984375 0.03515625 C4.99693359 0.04869141 4.99693359 0.04869141 6.6875 0.0625 C7.54214844 0.07410156 8.39679688 0.08570312 9.27734375 0.09765625 C11.27734375 5.84765625 11.27734375 5.84765625 11.27734375 8.09765625 C10.61734375 8.09765625 9.95734375 8.09765625 9.27734375 8.09765625 C9.27734375 6.44765625 9.27734375 4.79765625 9.27734375 3.09765625 C5.80792829 3.55588093 2.60339326 3.98897308 -0.72265625 5.09765625 C-1.05265625 20.93765625 -1.38265625 36.77765625 -1.72265625 53.09765625 C1.57734375 53.09765625 4.87734375 53.09765625 8.27734375 53.09765625 C8.26687012 52.18999512 8.25639648 51.28233398 8.24560547 50.34716797 C8.21138988 46.95895821 8.18638005 43.57093381 8.16748047 40.18261719 C8.1574627 38.72002249 8.14384463 37.25744762 8.12646484 35.79492188 C8.10202936 33.68484586 8.09081838 31.57503613 8.08203125 29.46484375 C8.07155762 28.19753418 8.06108398 26.93022461 8.05029297 25.62451172 C8.27669208 22.10777892 9.00510774 19.36849138 10.27734375 16.09765625 C11.59734375 16.42765625 12.91734375 16.75765625 14.27734375 17.09765625 C13.61734375 17.75765625 12.95734375 18.41765625 12.27734375 19.09765625 C11.1736354 23.08106834 11.08354277 27.03240328 10.9609375 31.1484375 C10.9401564 31.80724411 10.91937531 32.46605072 10.89796448 33.14482117 C10.83298886 35.2331681 10.773828 37.32163237 10.71484375 39.41015625 C10.67160896 40.83269405 10.62799315 42.25522031 10.58398438 43.67773438 C10.47664966 47.15092359 10.37719201 50.62421158 10.27734375 54.09765625 C5.65734375 54.09765625 1.03734375 54.09765625 -3.72265625 54.09765625 C-3.74729657 46.56795493 -3.76548766 39.03827686 -3.77758789 31.50854492 C-3.78262995 28.94473868 -3.78946339 26.38093534 -3.7980957 23.81713867 C-3.81016689 20.14110604 -3.81588567 16.46511127 -3.8203125 12.7890625 C-3.82547379 11.63491348 -3.83063507 10.48076447 -3.83595276 9.29164124 C-3.83602829 8.23061691 -3.83610382 7.16959259 -3.83618164 6.07641602 C-3.83840225 5.13709732 -3.84062286 4.19777863 -3.84291077 3.22999573 C-3.66048853 -0.00469479 -3.27411255 0.11743589 0 0 Z " fill="#5416DA" transform="translate(317.72265625,20.90234375)"/>
<path d="M0 0 C2.83333391 2.37634457 2.97885738 3.80266883 3.375 7.5 C2.97501688 11.23317579 2.58168059 12.38449827 0 15 C-2.375 15.53125 -2.375 15.53125 -5 15.5 C-5.86625 15.5103125 -6.7325 15.520625 -7.625 15.53125 C-10 15 -10 15 -11.78515625 13.1875 C-13.57839763 9.95851231 -13.45322357 7.62578853 -13 4 C-8.99828585 -1.06883792 -6.21426986 -1.41728962 0 0 Z " fill="#0688ED" transform="translate(151,1)"/>
<path d="M0 0 C4.62 0 9.24 0 14 0 C14 17.49 14 34.98 14 53 C9.38 53 4.76 53 0 53 C0 35.51 0 18.02 0 0 Z M2 2 C1.97535799 8.96003966 1.95716778 15.92005416 1.94506836 22.88012695 C1.94002659 25.24992312 1.93319335 27.61971615 1.92456055 29.98950195 C1.9124881 33.38754039 1.90677029 36.78553785 1.90234375 40.18359375 C1.89718246 41.25024765 1.89202118 42.31690155 1.88670349 43.4158783 C1.88662796 44.39681961 1.88655243 45.37776093 1.88647461 46.38842773 C1.884254 47.25668686 1.88203339 48.12494598 1.87974548 49.01951599 C1.78045333 51.00143681 1.78045333 51.00143681 3 52 C4.68608966 52.07205511 6.37500659 52.08386068 8.0625 52.0625 C8.98160156 52.05347656 9.90070313 52.04445312 10.84765625 52.03515625 C11.55792969 52.02355469 12.26820313 52.01195312 13 52 C13.02480236 46.00431618 13.04290845 40.00866254 13.05493164 34.01293945 C13.05994639 31.97517374 13.0667598 29.9374116 13.07543945 27.8996582 C13.08763052 24.96304439 13.09325702 22.02647834 13.09765625 19.08984375 C13.10281754 18.18540024 13.10797882 17.28095673 13.11329651 16.34910583 C13.1137262 11.45452139 12.8305951 6.82549889 12 2 C8.7 2 5.4 2 2 2 Z " fill="#0F72C6" transform="translate(139,22)"/>
<path d="M0 0 C-3.01888986 2.01259324 -3.93856576 2.26543111 -7.375 2.5 C-10.93931625 2.81824252 -13.7080122 3.54765244 -17 5 C-17.99 5 -18.98 5 -20 5 C-20 5.66 -20 6.32 -20 7 C-22.52892721 9.73397536 -24.89595133 11.93063422 -28 14 C-28.36558117 17.35503476 -28.36558117 17.35503476 -28.1875 21.125 C-28.16042969 22.40632813 -28.13335937 23.68765625 -28.10546875 25.0078125 C-28.07066406 25.99523437 -28.03585937 26.98265625 -28 28 C-27.34 28 -26.68 28 -26 28 C-26 28.66 -26 29.32 -26 30 C-25.030625 30.309375 -24.06125 30.61875 -23.0625 30.9375 C-20 32 -20 32 -19 33 C-16.65012738 33.23527773 -14.29443961 33.41386417 -11.9375 33.5625 C-10.64714844 33.64628906 -9.35679687 33.73007813 -8.02734375 33.81640625 C-6.52880859 33.90728516 -6.52880859 33.90728516 -5 34 C-5 33.01 -5 32.02 -5 31 C-2.69 31 -0.38 31 2 31 C1.67 32.32 1.34 33.64 1 35 C0.67 34.34 0.34 33.68 0 33 C-0.56847656 33.28875 -1.13695312 33.5775 -1.72265625 33.875 C-8.21505066 36.9965519 -13.109524 38.09416883 -20.125 35.8125 C-25.12417255 33.76826471 -28.03700368 30.44449448 -31 26 C-31.92562014 18.63809098 -31.56639511 12.92397203 -27 7 C-19.22813543 -0.77186457 -10.32052054 -0.39136805 0 0 Z " fill="#2F20AE" transform="translate(293,40)"/>
<path d="M0 0 C1.09570312 0.00902344 2.19140625 0.01804688 3.3203125 0.02734375 C4.16335938 0.03894531 5.00640625 0.05054688 5.875 0.0625 C6.205 1.0525 6.535 2.0425 6.875 3.0625 C7.535 3.0625 8.195 3.0625 8.875 3.0625 C10.43477064 6.18204128 9.99604126 9.49209384 9.97265625 12.9140625 C9.9712413 13.68809418 9.96982635 14.46212585 9.96836853 15.25961304 C9.96276403 17.73561442 9.95021083 20.21152588 9.9375 22.6875 C9.93248558 24.36458203 9.92792257 26.04166547 9.92382812 27.71875 C9.91279315 31.83336806 9.89552554 35.94791878 9.875 40.0625 C13.505 40.0625 17.135 40.0625 20.875 40.0625 C20.875 28.1825 20.875 16.3025 20.875 4.0625 C21.205 4.0625 21.535 4.0625 21.875 4.0625 C21.875 16.2725 21.875 28.4825 21.875 41.0625 C17.255 41.0625 12.635 41.0625 7.875 41.0625 C7.8656543 39.98766357 7.85630859 38.91282715 7.84667969 37.80541992 C7.80681586 33.81866972 7.74106827 29.8326942 7.66748047 25.84643555 C7.63924969 24.12095082 7.6180456 22.39533626 7.60400391 20.66967773 C7.58260258 18.18926426 7.53597083 15.7104151 7.484375 13.23046875 C7.48314636 12.45849655 7.48191772 11.68652435 7.48065186 10.89115906 C7.38016546 6.5381304 7.38016546 6.5381304 4.96411133 3.07250977 C0.7212042 1.02121763 -3.71539229 1.59263076 -8.125 3.0625 C-8.125 2.4025 -8.125 1.7425 -8.125 1.0625 C-5.36047967 -0.31976016 -3.0788637 -0.03275387 0 0 Z " fill="#3C0C96" transform="translate(340.125,33.9375)"/>
<path d="M0 0 C0.99 0.33 1.98 0.66 3 1 C2.67 1.99 2.34 2.98 2 4 C2.69150146 3.99476318 3.38300293 3.98952637 4.09545898 3.98413086 C7.20946352 3.963425 10.32345361 3.95036037 13.4375 3.9375 C14.52611328 3.92912109 15.61472656 3.92074219 16.73632812 3.91210938 C17.77080078 3.90888672 18.80527344 3.90566406 19.87109375 3.90234375 C20.82943115 3.89710693 21.78776855 3.89187012 22.77514648 3.88647461 C25 4 25 4 26 5 C26 8.63 26 12.26 26 16 C11.15 16 -3.7 16 -19 16 C-20.45454545 10.18181818 -20.45454545 10.18181818 -20 7 C-18.49976608 4.78112256 -16.83509208 2.97272398 -15 1 C-14.67 2.32 -14.34 3.64 -14 5 C-14.66 5 -15.32 5 -16 5 C-16.33 7.97 -16.66 10.94 -17 14 C3.295 14.495 3.295 14.495 24 15 C24 12.03 24 9.06 24 6 C16.41 5.67 8.82 5.34 1 5 C0.67 3.35 0.34 1.7 0 0 Z " fill="#1864C4" transform="translate(178,59)"/>
<path d="M0 0 C0.33 0 0.66 0 1 0 C1 1.65 1 3.3 1 5 C9.58 5 18.16 5 27 5 C27.33 5.66 27.66 6.32 28 7 C27.319375 7.5878125 27.319375 7.5878125 26.625 8.1875 C24.83581801 9.95758994 24.83581801 9.95758994 24.0625 12.5625 C22.77295696 15.52086344 21.82138328 15.67747659 19 17 C18.32311438 18.32817472 17.6580073 19.66237202 17 21 C15.99564028 22.28016835 14.95309739 23.53128122 13.875 24.75 C13.06675781 25.67039062 13.06675781 25.67039062 12.2421875 26.609375 C11.83226562 27.06828125 11.42234375 27.5271875 11 28 C10.01 27.67 9.02 27.34 8 27 C8.78345715 25.82780457 9.57702836 24.66236332 10.375 23.5 C10.81585938 22.8503125 11.25671875 22.200625 11.7109375 21.53125 C12.13632813 21.0259375 12.56171875 20.520625 13 20 C13.66 20 14.32 20 15 20 C15.3403125 19.195625 15.3403125 19.195625 15.6875 18.375 C17 16 17 16 19.5625 12.9375 C22.13537799 10.19794312 22.13537799 10.19794312 23 7 C22.01 7.33 21.02 7.66 20 8 C16.81627845 8.22527225 13.62839133 8.18514162 10.4375 8.1875 C9.56158203 8.19974609 8.68566406 8.21199219 7.78320312 8.22460938 C6.52733398 8.22750977 6.52733398 8.22750977 5.24609375 8.23046875 C4.09645142 8.23663208 4.09645142 8.23663208 2.92358398 8.24291992 C1 8 1 8 -1 6 C-1.1875 3.4375 -1.1875 3.4375 -1 1 C-0.67 0.67 -0.34 0.34 0 0 Z " fill="#0C65BC" transform="translate(160,27)"/>
<path d="M0 0 C11.88 0 23.76 0 36 0 C36 4.29 36 8.58 36 13 C26.1 13 16.2 13 6 13 C6 12.67 6 12.34 6 12 C15.23730035 10.82700948 23.76269965 10.82700948 33 12 C33.33 8.7 33.66 5.4 34 2 C33.01 2.33 32.02 2.66 31 3 C28.64163647 3.01608263 26.28260995 2.96548363 23.92578125 2.87890625 C23.2419487 2.85529526 22.55811615 2.83168427 21.8535614 2.80735779 C19.67298774 2.7308855 17.49278405 2.64679119 15.3125 2.5625 C13.8327003 2.50926281 12.35288262 2.45652252 10.87304688 2.40429688 C7.24847183 2.27529303 3.62418977 2.13945273 0 2 C0 1.34 0 0.68 0 0 Z " fill="#343CCE" transform="translate(223,62)"/>
<path d="M0 0 C0.33 0.66 0.66 1.32 1 2 C1.99 2.33 2.98 2.66 4 3 C10.02015416 12.32498656 12.04920964 22.02168455 11 33 C9.65232492 38.40459389 7.60068329 43.17868351 4.625 47.875 C2.6216593 50.87950559 2.6216593 50.87950559 3.75 53.9375 C4.36875 54.9584375 4.36875 54.9584375 5 56 C3.68 55.67 2.36 55.34 1 55 C1 52.03 1 49.06 1 46 C1.99 46 2.98 46 4 46 C4 43.69 4 41.38 4 39 C4.99 39.33 5.98 39.66 7 40 C6.979375 38.9275 6.95875 37.855 6.9375 36.75 C7 33 7 33 7.5 31.0625 C9.79638438 21.58991445 5.88046697 12.5000705 2 4 C1.34 4 0.68 4 0 4 C0 2.68 0 1.36 0 0 Z " fill="#0C68BF" transform="translate(69,13)"/>
<path d="M0 0 C14.52 0 29.04 0 44 0 C44 12.38009788 44 12.38009788 39.8125 16.875 C39.03519531 17.73867188 38.25789063 18.60234375 37.45703125 19.4921875 C34.98812394 22.01212151 32.50565587 24.51659685 30 27 C29.49846227 22.78708304 29.76931027 21.31797773 32.3125 17.8125 C33.199375 16.884375 34.08625 15.95625 35 15 C35.53625 14.38125 36.0725 13.7625 36.625 13.125 C38 12 38 12 41 12 C41 10.68 41 9.36 41 8 C41.66 8 42.32 8 43 8 C43 5.69 43 3.38 43 1 C28.81 1 14.62 1 0 1 C0 0.67 0 0.34 0 0 Z " fill="#115BAD" transform="translate(160,22)"/>
<path d="M0 0 C2.31 0 4.62 0 7 0 C7.33 0.99 7.66 1.98 8 3 C16.08821422 5.17458758 22.15180996 5.05529169 30 2 C30.33 1.67 30.66 1.34 31 1 C36.52941176 0.76470588 36.52941176 0.76470588 39 2 C39 2.66 39 3.32 39 4 C39.66 4 40.32 4 41 4 C41.495 6.475 41.495 6.475 42 9 C41.278125 8.0925 40.55625 7.185 39.8125 6.25 C38.20936461 4.72256341 38.20936461 4.72256341 36 4 C32.57337896 4.67554656 29.46106435 5.80885346 26.17578125 6.98828125 C21.74080102 8.40114703 19.50878235 8.10871697 15 7 C14.1646875 6.79890625 13.329375 6.5978125 12.46875 6.390625 C7.47628631 5.06909049 3.79586668 3.66933779 0 0 Z " fill="#0E5495" transform="translate(20,70)"/>
<path d="M0 0 C3.63 0.33 7.26 0.66 11 1 C11 23.77 11 46.54 11 70 C10.67 70 10.34 70 10 70 C10 47.89 10 25.78 10 3 C6.7 3 3.4 3 0 3 C0 9.6 0 16.2 0 23 C-0.33 23 -0.66 23 -1 23 C-1.02887512 19.35418313 -1.04675585 15.70839537 -1.0625 12.0625 C-1.07087891 11.02158203 -1.07925781 9.98066406 -1.08789062 8.90820312 C-1.09272461 7.42416992 -1.09272461 7.42416992 -1.09765625 5.91015625 C-1.10289307 4.99371338 -1.10812988 4.07727051 -1.11352539 3.13305664 C-1 1 -1 1 0 0 Z " fill="#6808D1" transform="translate(406,4)"/>
<path d="M0 0 C2.83203125 0.03255208 5.6640625 0.06510417 8.49609375 0.09765625 C8.49609375 4.05765625 8.49609375 8.01765625 8.49609375 12.09765625 C8.16609375 12.09765625 7.83609375 12.09765625 7.49609375 12.09765625 C6.83609375 8.79765625 6.17609375 5.49765625 5.49609375 2.09765625 C2.52543866 2.43993197 2.52543866 2.43993197 -0.50390625 3.09765625 C-1.88187194 5.85358763 -1.66689564 8.11545439 -1.70922852 11.19970703 C-1.72917374 12.48088409 -1.74911896 13.76206116 -1.76966858 15.08206177 C-1.78665294 16.48569619 -1.80353174 17.88933188 -1.8203125 19.29296875 C-1.84088165 20.72501222 -1.86187811 22.15704962 -1.88328552 23.58908081 C-1.93851028 27.36032188 -1.98791772 31.13161777 -2.03613281 34.9029541 C-2.08634492 38.75045661 -2.14203249 42.59787938 -2.19726562 46.4453125 C-2.30485212 53.99602625 -2.40629596 61.54680625 -2.50390625 69.09765625 C-2.83390625 69.09765625 -3.16390625 69.09765625 -3.50390625 69.09765625 C-3.52703214 60.24883235 -3.54482259 51.40001878 -3.55571842 42.5511713 C-3.56094671 38.4427134 -3.56804338 34.33427611 -3.5793457 30.22583008 C-3.5901765 26.26418797 -3.59618349 22.30256573 -3.59878349 18.34090996 C-3.60063739 16.82617314 -3.60425735 15.31143746 -3.60963631 13.79670906 C-3.61684932 11.68223812 -3.61789708 9.56785031 -3.61743164 7.45336914 C-3.61965225 6.24757706 -3.62187286 5.04178497 -3.62416077 3.79945374 C-3.46105871 0.13498669 -3.46105871 0.13498669 0 0 Z " fill="#1B5AE6" transform="translate(214.50390625,4.90234375)"/>
<path d="M0 0 C1.51400391 0.01740234 1.51400391 0.01740234 3.05859375 0.03515625 C4.07050781 0.04417969 5.08242187 0.05320312 6.125 0.0625 C7.29869141 0.07990234 7.29869141 0.07990234 8.49609375 0.09765625 C8.49609375 0.42765625 8.49609375 0.75765625 8.49609375 1.09765625 C5.19609375 1.09765625 1.89609375 1.09765625 -1.50390625 1.09765625 C-1.50390625 13.63765625 -1.50390625 26.17765625 -1.50390625 39.09765625 C-0.84390625 39.09765625 -0.18390625 39.09765625 0.49609375 39.09765625 C0.49609375 41.07765625 0.49609375 43.05765625 0.49609375 45.09765625 C-0.16390625 44.76765625 -0.82390625 44.43765625 -1.50390625 44.09765625 C-4.03918456 36.19826277 -3.77614474 28.15327324 -3.7097168 19.94726562 C-3.69123291 17.57541369 -3.6892091 15.20394835 -3.68945312 12.83203125 C-3.68454517 11.32681951 -3.67872004 9.82161042 -3.671875 8.31640625 C-3.67076218 7.60609253 -3.66964935 6.89577881 -3.66850281 6.16394043 C-3.60952794 0.14077722 -3.60952794 0.14077722 0 0 Z " fill="#0D6EB2" transform="translate(87.50390625,21.90234375)"/>
<path d="M0 0 C0.56589844 0.49371094 1.13179687 0.98742188 1.71484375 1.49609375 C1.71484375 2.15609375 1.71484375 2.81609375 1.71484375 3.49609375 C2.70484375 3.82609375 3.69484375 4.15609375 4.71484375 4.49609375 C3.39484375 4.82609375 2.07484375 5.15609375 0.71484375 5.49609375 C0.21984375 4.01109375 0.21984375 4.01109375 -0.28515625 2.49609375 C-2.6072215 1.79118108 -4.94108693 1.12396946 -7.28515625 0.49609375 C-7.61515625 -0.16390625 -7.94515625 -0.82390625 -8.28515625 -1.50390625 C-9.93907471 -1.89562378 -11.60860896 -2.2244817 -13.28515625 -2.50390625 C-14.27515625 -2.83390625 -15.26515625 -3.16390625 -16.28515625 -3.50390625 C-17.83937354 -3.58497311 -19.39682652 -3.61147523 -20.953125 -3.6015625 C-21.84580078 -3.59833984 -22.73847656 -3.59511719 -23.65820312 -3.59179688 C-24.58697266 -3.58341797 -25.51574219 -3.57503906 -26.47265625 -3.56640625 C-27.88321289 -3.55963867 -27.88321289 -3.55963867 -29.32226562 -3.55273438 C-31.64329337 -3.54095251 -33.96419269 -3.52450183 -36.28515625 -3.50390625 C-24.29315096 -9.61301158 -11.1388541 -7.33069885 0 0 Z " fill="#0E75BA" transform="translate(64.28515625,7.50390625)"/>
<path d="M0 0 C1.03128075 0.96770865 2.0400424 1.96150041 3 3 C1.989375 2.67 0.97875 2.34 -0.0625 2 C-8.75290921 -0.18812089 -18.24076637 0.59085688 -27 2 C-27 2.66 -27 3.32 -27 4 C-28.65 4.33 -30.3 4.66 -32 5 C-24.79391042 -5.66501258 -10.69391668 -5.34695834 0 0 Z " fill="#3123B8" transform="translate(299,24)"/>
<path d="M0 0 C0.99 0 1.98 0 3 0 C3.33 1.65 3.66 3.3 4 5 C4.556875 5.0825 5.11375 5.165 5.6875 5.25 C8 6 8 6 10.0625 8.03125 C14.17884216 10.79007506 17.48232904 10.44823906 22.3125 10.25 C23.14845703 10.23195313 23.98441406 10.21390625 24.84570312 10.1953125 C26.89763228 10.14841126 28.94896756 10.07667411 31 10 C31 9.01 31 8.02 31 7 C31.99 7 32.98 7 34 7 C34 7.99 34 8.98 34 10 C27.18947204 13.33281155 20.85590684 15.08762458 13.375 12.9375 C7.76363843 10.78533155 3.27513722 7.55027445 0.5625 2.125 C0.376875 1.42375 0.19125 0.7225 0 0 Z " fill="#510CB2" transform="translate(370,63)"/>
<path d="M0 0 C1.32 0 2.64 0 4 0 C4.0825 0.61875 4.165 1.2375 4.25 1.875 C4.4975 2.57625 4.745 3.2775 5 4 C5.9590625 4.433125 5.9590625 4.433125 6.9375 4.875 C9 6 9 6 10.14453125 8.4921875 C11.21901358 12.89805569 11.06168479 16.75594027 10.75 21.25 C10.71003906 22.0646875 10.67007813 22.879375 10.62890625 23.71875 C10.26005842 29.73994158 10.26005842 29.73994158 8 32 C6.68 32 5.36 32 4 32 C4.33 30.68 4.66 29.36 5 28 C5 28.66 5 29.32 5 30 C5.66 30 6.32 30 7 30 C8.1435294 20.00184431 9.06840006 11.81249961 2.875 3.4375 C1.93142843 2.27948035 0.97819584 1.12892413 0 0 Z " fill="#0F6DB5" transform="translate(54,20)"/>
<path d="M0 0 C0.66 0.33 1.32 0.66 2 1 C-0.39391051 4.93285297 -1.94885565 6.97442783 -6 9 C-7.23290201 11.45704762 -7.23290201 11.45704762 -8 14 C-8.33 14.66 -8.66 15.32 -9 16 C-9.09910336 18.92646395 -9.13888949 21.82394757 -9.125 24.75 C-9.12886719 25.54921875 -9.13273437 26.3484375 -9.13671875 27.171875 C-9.1295008 31.56038818 -8.87799002 35.67973166 -8 40 C-10.66326342 38.66836829 -10.78664696 37.59804439 -11.75 34.8125 C-14.39378375 25.38390385 -12.09920495 15.50605942 -7.44140625 7.06640625 C-5.32491745 4.03219873 -3.02620773 2.11130772 0 0 Z " fill="#4C0BB4" transform="translate(378,23)"/>
<path d="M0 0 C1.65322266 0.01740234 1.65322266 0.01740234 3.33984375 0.03515625 C4.99693359 0.04869141 4.99693359 0.04869141 6.6875 0.0625 C7.54214844 0.07410156 8.39679688 0.08570312 9.27734375 0.09765625 C11.27734375 5.84765625 11.27734375 5.84765625 11.27734375 8.09765625 C10.61734375 8.09765625 9.95734375 8.09765625 9.27734375 8.09765625 C8.94734375 6.44765625 8.61734375 4.79765625 8.27734375 3.09765625 C4.64734375 2.76765625 1.01734375 2.43765625 -2.72265625 2.09765625 C-2.72265625 19.25765625 -2.72265625 36.41765625 -2.72265625 54.09765625 C-3.05265625 54.09765625 -3.38265625 54.09765625 -3.72265625 54.09765625 C-3.74792273 46.56795973 -3.76548766 39.03827405 -3.77758789 31.50854492 C-3.78262995 28.94473868 -3.78946339 26.38093534 -3.7980957 23.81713867 C-3.81016689 20.14110604 -3.81588567 16.46511127 -3.8203125 12.7890625 C-3.82547379 11.63491348 -3.83063507 10.48076447 -3.83595276 9.29164124 C-3.83602829 8.23061691 -3.83610382 7.16959259 -3.83618164 6.07641602 C-3.83840225 5.13709732 -3.84062286 4.19777863 -3.84291077 3.22999573 C-3.66048853 -0.00469479 -3.27411255 0.11743589 0 0 Z " fill="#221476" transform="translate(317.72265625,20.90234375)"/>
<path d="M0 0 C1.20272819 2.40545638 1.10071472 3.94996953 1.0625 6.625 C1.05347656 7.44226562 1.04445313 8.25953125 1.03515625 9.1015625 C1.02355469 9.72804688 1.01195312 10.35453125 1 11 C0.34 11 -0.32 11 -1 11 C-1.103125 11.639375 -1.20625 12.27875 -1.3125 12.9375 C-1.539375 13.618125 -1.76625 14.29875 -2 15 C-2.99 15.33 -3.98 15.66 -5 16 C-5.33 16.66 -5.66 17.32 -6 18 C-9.47325181 19.1577506 -12.36067448 19.06866652 -16 19 C-16 18.01 -16 17.02 -16 16 C-15.09507812 15.96132813 -15.09507812 15.96132813 -14.171875 15.921875 C-9.09722585 15.56485152 -9.09722585 15.56485152 -4.5625 13.4375 C-2.39330514 10.05355602 -1.78758075 6.93790376 -1 3 C-4.3 2.67 -7.6 2.34 -11 2 C-6.78370866 -0.10814567 -4.60209225 -0.17700355 0 0 Z " fill="#311AA5" transform="translate(295,48)"/>
<path d="M0 0 C-3.01888986 2.01259324 -3.93856576 2.26543111 -7.375 2.5 C-10.93931625 2.81824252 -13.7080122 3.54765244 -17 5 C-17.99 5 -18.98 5 -20 5 C-20 5.66 -20 6.32 -20 7 C-24.31818182 11.65909091 -24.31818182 11.65909091 -27 13 C-27.3125 10.25 -27.3125 10.25 -27 7 C-19.70435399 -0.97961282 -9.96232615 -0.37778484 0 0 Z " fill="#3322BB" transform="translate(293,40)"/>
<path d="M0 0 C0.33 0.66 0.66 1.32 1 2 C2.32 1.67 3.64 1.34 5 1 C4.66226562 1.4846875 4.32453125 1.969375 3.9765625 2.46875 C-1.25328298 10.32863337 -2.8127731 16.68667029 -1 26 C-0.41919653 28.37561718 0.25568376 30.66780912 1 33 C-2.35689757 30.0762505 -3.42831757 28.38289862 -4 24 C-4.068089 21.21924515 -4.09478336 18.46635261 -4.0625 15.6875 C-4.05798828 14.94693359 -4.05347656 14.20636719 -4.04882812 13.44335938 C-4.03712175 11.62887101 -4.01918898 9.81442466 -4 8 C-3.34 8 -2.68 8 -2 8 C-1.855625 6.865625 -1.71125 5.73125 -1.5625 4.5625 C-1 1 -1 1 0 0 Z " fill="#0C71B7" transform="translate(24,20)"/>
<path d="M0 0 C4.875 4.625 4.875 4.625 6 8 C3.75749122 9.06129426 1.50850911 10.09881233 -0.75 11.125 C-1.38421875 11.42792969 -2.0184375 11.73085937 -2.671875 12.04296875 C-7.45095438 14.18359806 -7.45095438 14.18359806 -10.453125 13.1796875 C-10.96359375 12.79039063 -11.4740625 12.40109375 -12 12 C-12 11.67 -12 11.34 -12 11 C-9.69 11 -7.38 11 -5 11 C-5 10.34 -5 9.68 -5 9 C-3.68 9 -2.36 9 -1 9 C-0.67 6.03 -0.34 3.06 0 0 Z " fill="#0D66B6" transform="translate(74,69)"/>
<path d="M0 0 C0 0.66 0 1.32 0 2 C-0.99 2 -1.98 2 -3 2 C-3 2.66 -3 3.32 -3 4 C-5.64846603 6.36214538 -7.61516396 7.87172132 -11 9 C-12.50994018 11.33564361 -13.86915145 13.62367437 -15.1875 16.0625 C-15.55552734 16.72572266 -15.92355469 17.38894531 -16.30273438 18.07226562 C-17.21012062 19.71027457 -18.10615573 21.35456221 -19 23 C-19.66 22.67 -20.32 22.34 -21 22 C-19.78065514 17.96678237 -18.44045073 14.45730521 -16 11 C-15.34 11 -14.68 11 -14 11 C-13.34 9.68 -12.68 8.36 -12 7 C-11.34 7 -10.68 7 -10 7 C-9.67 6.01 -9.34 5.02 -9 4 C-6.33916031 2.00603743 -3.38757675 0 0 0 Z " fill="#0E69A5" transform="translate(28,4)"/>
<path d="M0 0 C0.99 0 1.98 0 3 0 C2.938125 1.2375 2.87625 2.475 2.8125 3.75 C2.79228943 7.59000784 3.59880153 8.99850191 6 12 C6.1875 15.25 6.1875 15.25 6 18 C2.78548731 19.60725635 -0.43612536 19.05748185 -4 19 C-4 18.67 -4 18.34 -4 18 C-1.36 17.34 1.28 16.68 4 16 C3.154375 15.030625 2.30875 14.06125 1.4375 13.0625 C-0.88163289 9.8834639 -1.28141174 7.96187132 -0.8125 4.0625 C-0.56965731 2.70303485 -0.30829774 1.3461317 0 0 Z " fill="#0F71CB" transform="translate(43,44)"/>
<path d="M0 0 C0.66 0.33 1.32 0.66 2 1 C2 3.64 2 6.28 2 9 C-0.31 9 -2.62 9 -5 9 C-5.33 6.69 -5.66 4.38 -6 2 C-4.35 2 -2.7 2 -1 2 C-0.67 1.34 -0.34 0.68 0 0 Z " fill="#5311F9" transform="translate(301,65)"/>
<path d="M0 0 C2.83203125 0.03255208 5.6640625 0.06510417 8.49609375 0.09765625 C8.49609375 4.05765625 8.49609375 8.01765625 8.49609375 12.09765625 C8.16609375 12.09765625 7.83609375 12.09765625 7.49609375 12.09765625 C6.83609375 8.79765625 6.17609375 5.49765625 5.49609375 2.09765625 C2.52543866 2.43993197 2.52543866 2.43993197 -0.50390625 3.09765625 C-1.65205622 5.39395619 -1.81160434 7.17463711 -2.06640625 9.72265625 C-2.15019531 10.53992187 -2.23398438 11.3571875 -2.3203125 12.19921875 C-2.38089844 12.82570313 -2.44148437 13.4521875 -2.50390625 14.09765625 C-2.83390625 14.09765625 -3.16390625 14.09765625 -3.50390625 14.09765625 C-3.53076563 11.95188988 -3.55023713 9.8060298 -3.56640625 7.66015625 C-3.57800781 6.46519531 -3.58960938 5.27023437 -3.6015625 4.0390625 C-3.47195922 0.13541183 -3.47195922 0.13541183 0 0 Z " fill="#0E71E7" transform="translate(214.50390625,4.90234375)"/>
<path d="M0 0 C1.98 0.495 1.98 0.495 4 1 C3.34 1.66 2.68 2.32 2 3 C0.89629165 6.98341209 0.80619902 10.93474703 0.68359375 15.05078125 C0.66281265 15.70958786 0.64203156 16.36839447 0.62062073 17.04716492 C0.55564511 19.13551185 0.49648425 21.22397612 0.4375 23.3125 C0.39426521 24.7350378 0.3506494 26.15756406 0.30664062 27.58007812 C0.20001784 31.05326297 0.09860652 34.52657726 0 38 C-0.33 38 -0.66 38 -1 38 C-1.02468084 32.90967159 -1.04285082 27.81937785 -1.05493164 22.72900391 C-1.05996682 20.99657586 -1.06679532 19.26415208 -1.07543945 17.53173828 C-1.08754065 15.04458567 -1.09323638 12.55748913 -1.09765625 10.0703125 C-1.10281754 9.29317902 -1.10797882 8.51604553 -1.11329651 7.71536255 C-1.11387171 2.22774341 -1.11387171 2.22774341 0 0 Z " fill="#281079" transform="translate(328,37)"/>
<path d="M0 0 C2.54868179 2.21624503 3.37585818 3.70493131 4 7 C4.01602824 9.84042078 3.9761372 12.64788986 3.87890625 15.484375 C3.85529526 16.29996887 3.83168427 17.11556274 3.80735779 17.95587158 C3.73094567 20.5541014 3.64682516 23.15201614 3.5625 25.75 C3.50925681 27.51430764 3.45651657 29.27863053 3.40429688 31.04296875 C3.27536101 35.36217769 3.1395126 39.68112028 3 44 C2.67 44 2.34 44 2 44 C1.97494385 42.91581787 1.9498877 41.83163574 1.92407227 40.71459961 C1.82946071 36.66843091 1.72937414 32.62241253 1.62768555 28.57641602 C1.58453898 26.82970715 1.54285083 25.0829616 1.50268555 23.33618164 C1.44448831 20.81645684 1.38094003 18.29691329 1.31640625 15.77734375 C1.29969376 15.00414291 1.28298126 14.23094208 1.26576233 13.43431091 C1.14299979 8.87815027 0.73213879 4.49965725 0 0 Z " fill="#5A0BCC" transform="translate(358,30)"/>
<path d="M0 0 C0 0.66 0 1.32 0 2 C0.66 2 1.32 2 2 2 C2.33 3.65 2.66 5.3 3 7 C2.236875 6.13375 1.47375 5.2675 0.6875 4.375 C-1.61199021 2.425076 -2.58045515 1.98197511 -5.63671875 2.11328125 C-7.55347174 2.49767782 -9.46298144 2.9200344 -11.36328125 3.37890625 C-14.29858055 4.07033231 -16.99387502 4.16249324 -20 4 C-14.15941374 0.83634911 -6.50510559 -3.2525528 0 0 Z " fill="#0D74CF" transform="translate(59,72)"/>
<path d="M0 0 C0.33 0.99 0.66 1.98 1 3 C6.94 2.505 6.94 2.505 13 2 C13 1.34 13 0.68 13 0 C16.3 0 19.6 0 23 0 C23 0.33 23 0.66 23 1 C22.36191406 1.19335938 21.72382813 1.38671875 21.06640625 1.5859375 C20.24011719 1.84632812 19.41382813 2.10671875 18.5625 2.375 C17.32693359 2.75785156 17.32693359 2.75785156 16.06640625 3.1484375 C13.82201984 3.80882227 13.82201984 3.80882227 13 6 C8.71 5.34 4.42 4.68 0 4 C0 2.68 0 1.36 0 0 Z " fill="#2B21A9" transform="translate(264,33)"/>
<path d="M0 0 C0.33 0.66 0.66 1.32 1 2 C1.99 2.33 2.98 2.66 4 3 C5.3515625 5.1796875 5.3515625 5.1796875 6.625 7.875 C7.05039063 8.75929688 7.47578125 9.64359375 7.9140625 10.5546875 C9.50003099 14.12596907 10.11865351 16.81290798 10.0625 20.6875 C10.05347656 21.49574219 10.04445313 22.30398437 10.03515625 23.13671875 C10.02355469 23.75160156 10.01195313 24.36648437 10 25 C8.45616891 22.11774023 7.43950024 19.33380028 6.5625 16.1875 C5.33124424 11.94720594 3.8324959 8.01403864 2 4 C1.34 4 0.68 4 0 4 C0 2.68 0 1.36 0 0 Z " fill="#1280CD" transform="translate(69,13)"/>
<path d="M0 0 C2.31 0 4.62 0 7 0 C3.25 2 3.25 2 1 2 C-0.83807713 5.78427644 -1.2031953 7.95288854 0 12 C0.33 12.66 0.66 13.32 1 14 C-1.16874252 13.49396008 -2.99967627 13.00016187 -5 12 C-5 10.02 -5 8.04 -5 6 C-4.34 5.67 -3.68 5.34 -3 5 C-2.67 4.01 -2.34 3.02 -2 2 C-1.34 2 -0.68 2 0 2 C0 1.34 0 0.68 0 0 Z " fill="#3321C0" transform="translate(277,50)"/>
<path d="M0 0 C0.33 1.32 0.66 2.64 1 4 C0.34 4 -0.32 4 -1 4 C-1.33 6.97 -1.66 9.94 -2 13 C0.31 13 2.62 13 5 13 C5 13.33 5 13.66 5 14 C1.7 14 -1.6 14 -5 14 C-5.602537 7.01057082 -5.602537 7.01057082 -3.88671875 4.1328125 C-2.66254412 2.69138998 -1.33721771 1.33721771 0 0 Z " fill="#0862CE" transform="translate(163,60)"/>
<path d="M0 0 C1.58246707 -0.08153933 3.16616273 -0.13943557 4.75 -0.1875 C6.07257813 -0.23970703 6.07257813 -0.23970703 7.421875 -0.29296875 C10.44671583 0.05076316 11.75583602 1.00227459 14 3 C13.67 3.99 13.34 4.98 13 6 C12.195625 5.484375 11.39125 4.96875 10.5625 4.4375 C6.00328565 2.59781702 2.73655958 3.1263679 -2 4 C-1.34 2.68 -0.68 1.36 0 0 Z " fill="#490AAB" transform="translate(387,32)"/>
<path d="M0 0 C4.40671694 1.09418482 7.391449 2.0871735 10 6 C9.35675781 5.69320313 8.71351563 5.38640625 8.05078125 5.0703125 C4.12177968 3.69189197 0.31347689 3.29693561 -3.8125 2.875 C-4.60076172 2.78863281 -5.38902344 2.70226562 -6.20117188 2.61328125 C-8.13343084 2.40248936 -10.06663263 2.20037104 -12 2 C-7.92081981 -0.71945346 -4.78652871 -0.5095337 0 0 Z " fill="#4A0CAC" transform="translate(394,21)"/>
<path d="M0 0 C0 0.66 0 1.32 0 2 C-6.70019789 2.70132913 -13.26257354 3.11044961 -20 3 C-13.46283022 -0.49731205 -7.2325021 -1.53883023 0 0 Z " fill="#1171AA" transform="translate(48,1)"/>
<path d="M0 0 C0.33 0.66 0.66 1.32 1 2 C1.99 2.33 2.98 2.66 4 3 C1.48176027 5.10653841 -0.928236 6.80683547 -4 8 C-7.29174535 7.58651812 -9.9931229 6.34518186 -13 5 C-14.32604651 4.63876664 -15.65793386 4.29622181 -17 4 C-16.67 3.01 -16.34 2.02 -16 1 C-14.02 1.66 -12.04 2.32 -10 3 C-10 3.66 -10 4.32 -10 5 C-6.7 4.67 -3.4 4.34 0 4 C0 2.68 0 1.36 0 0 Z " fill="#0A79DB" transform="translate(49,58)"/>
<path d="M0 0 C0.66 0 1.32 0 2 0 C2.06058594 1.01320312 2.12117188 2.02640625 2.18359375 3.0703125 C2.26806704 4.42188514 2.35271157 5.77344709 2.4375 7.125 C2.47681641 7.79015625 2.51613281 8.4553125 2.55664062 9.140625 C2.812152 13.15018817 3.26782413 17.04994196 4 21 C2 20 2 20 1.11328125 18.06640625 C-0.92917241 11.68000237 -1.16435766 6.59335059 0 0 Z " fill="#450FA6" transform="translate(366,42)"/>
<path d="M0 0 C0.33 0 0.66 0 1 0 C1.66 3.3 2.32 6.6 3 10 C6.3 10 9.6 10 13 10 C12.67 10.66 12.34 11.32 12 12 C10.3973218 12.10824843 8.79254252 12.18570645 7.1875 12.25 C6.29417969 12.29640625 5.40085938 12.3428125 4.48046875 12.390625 C2 12 2 12 0.19140625 10.21484375 C-1.49662954 7.07675755 -1.26411348 4.4995036 -1 1 C-0.67 0.67 -0.34 0.34 0 0 Z " fill="#0F63A4" transform="translate(139,4)"/>
<path d="M0 0 C0.433125 0.598125 0.86625 1.19625 1.3125 1.8125 C4.3966664 5.96954495 4.3966664 5.96954495 9.1875 7.6875 C10.115625 7.790625 11.04375 7.89375 12 8 C12 8.66 12 9.32 12 10 C8.03611362 10.07622858 4.8726592 9.9681648 1 9 C0.67 6.03 0.34 3.06 0 0 Z " fill="#0D71C7" transform="translate(98,55)"/>
<path d="M0 0 C0.99 0 1.98 0 3 0 C3.33 1.65 3.66 3.3 4 5 C4.86625 5.061875 4.86625 5.061875 5.75 5.125 C9.13312465 6.44065958 10.19222685 8.96552364 12 12 C7.15604338 9.95063374 2.95798563 6.95951606 0.625 2.1875 C0.41875 1.465625 0.2125 0.74375 0 0 Z " fill="#470BA9" transform="translate(370,63)"/>
<path d="M0 0 C2.31 0 4.62 0 7 0 C7.33 0.99 7.66 1.98 8 3 C10.31 3.33 12.62 3.66 15 4 C15 4.33 15 4.66 15 5 C8.53673535 5.45356243 5.39068413 4.59378942 0 1 C0 0.67 0 0.34 0 0 Z " fill="#1070C2" transform="translate(20,70)"/>
<path d="M0 0 C1.32 0.33 2.64 0.66 4 1 C4 1.99 4 2.98 4 4 C1.37403939 5.84526962 -0.95127546 6.98375849 -4 8 C-3.49396008 5.83125748 -3.00016187 4.00032373 -2 2 C-1.34 2 -0.68 2 0 2 C0 1.34 0 0.68 0 0 Z " fill="#0968C1" transform="translate(116,67)"/>
<path d="M0 0 C0 3.51716303 -0.82445585 4.37121748 -3 7 C-3.495 6.855625 -3.99 6.71125 -4.5 6.5625 C-7.97752922 5.78005593 -11.45955123 5.41305236 -15 5 C-15 4.34 -15 3.68 -15 3 C-14.00419922 3.05220703 -14.00419922 3.05220703 -12.98828125 3.10546875 C-6.02058166 3.32707069 -6.02058166 3.32707069 0 0 Z " fill="#4D09BA" transform="translate(402,59)"/>
<path d="M0 0 C0.99 0 1.98 0 3 0 C1.43358249 4.30764815 -0.68336156 8.06171464 -3 12 C-3.66 11.67 -4.32 11.34 -5 11 C-3.78310457 6.97488434 -2.50546238 3.40742883 0 0 Z " fill="#1179BD" transform="translate(12,15)"/>
<path d="M0 0 C0.99 0 1.98 0 3 0 C3 2.97 3 5.94 3 9 C1.68 8.67 0.36 8.34 -1 8 C-2.2077558 4.37673261 -1.54311128 3.35853631 0 0 Z " fill="#0D66F9" transform="translate(199,65)"/>
<path d="M0 0 C0 0.99 0 1.98 0 3 C1.32 3.33 2.64 3.66 4 4 C4 4.99 4 5.98 4 7 C-2.75 5.375 -2.75 5.375 -5 2 C-2 0 -2 0 0 0 Z " fill="#0C7ED0" transform="translate(50,13)"/>
<path d="M0 0 C0.33 0 0.66 0 1 0 C1.17015625 0.73605469 1.3403125 1.47210938 1.515625 2.23046875 C3.39314294 9.79438404 3.39314294 9.79438404 8 16 C4.56337936 14.52716258 2.16184842 13.08835489 0 10 C-0.3380398 6.64072946 -0.23112958 3.36421941 0 0 Z " fill="#410AAB" transform="translate(379,46)"/>
<path d="M0 0 C0.99 0.33 1.98 0.66 3 1 C4.0625 4.1875 4.0625 4.1875 5 8 C5.65572791 10.00361307 6.31875294 12.00491933 7 14 C3.42816424 11.61877616 1.67146233 8.87513158 0 5 C-0.25 2.0625 -0.25 2.0625 0 0 Z " fill="#0E67AF" transform="translate(7,50)"/>
<path d="M0 0 C0.99 0.495 0.99 0.495 2 1 C1.01 1.495 1.01 1.495 0 2 C0 1.34 0 0.68 0 0 Z M1 3 C1 3.66 1 4.32 1 5 C-0.32 5 -1.64 5 -3 5 C-3.66 6.65 -4.32 8.3 -5 10 C-5.66 10 -6.32 10 -7 10 C-6.67 7.69 -6.34 5.38 -6 3 C-2.86650268 1.95550089 -2.01031744 2.06576355 1 3 Z " fill="#3A2BDD" transform="translate(272,26)"/>
<path d="M0 0 C3.96 0 7.92 0 12 0 C14 5.75 14 5.75 14 8 C13.34 8 12.68 8 12 8 C11.67 6.35 11.34 4.7 11 3 C7.37 2.67 3.74 2.34 0 2 C0 1.34 0 0.68 0 0 Z " fill="#33149D" transform="translate(315,21)"/>
<path d="M0 0 C0.33 0 0.66 0 1 0 C1 7.26 1 14.52 1 22 C0.34 22.33 -0.32 22.66 -1 23 C-1.66 22.67 -2.32 22.34 -3 22 C-3 21.34 -3 20.68 -3 20 C-2.01 20 -1.02 20 0 20 C0 13.4 0 6.8 0 0 Z " fill="#6C0BDA" transform="translate(406,7)"/>
<path d="M0 0 C0.33 1.32 0.66 2.64 1 4 C0.34 4 -0.32 4 -1 4 C-1 4.99 -1 5.98 -1 7 C-2.75 8.75 -2.75 8.75 -5 10 C-7.25 9.6875 -7.25 9.6875 -9 9 C-8.21625 8.608125 -7.4325 8.21625 -6.625 7.8125 C-3.61259632 5.73250698 -3.15557029 4.37782084 -2 1 C-1.34 0.67 -0.68 0.34 0 0 Z " fill="#116BBC" transform="translate(119,53)"/>
<path d="M0 0 C2.15942819 3.23914229 2.27232978 4.24859733 2.25 8 C2.25515625 8.86625 2.2603125 9.7325 2.265625 10.625 C2 13 2 13 0 16 C-0.66 16 -1.32 16 -2 16 C-1.67 15.030625 -1.34 14.06125 -1 13.0625 C0.26873752 8.70233163 0.18385528 4.50445434 0 0 Z " fill="#4E0DA6" transform="translate(405,43)"/>
<path d="M0 0 C5.61 0.66 11.22 1.32 17 2 C17 2.33 17 2.66 17 3 C11.48903321 4.45025442 6.36864892 3.72888694 1 2 C0.67 1.34 0.34 0.68 0 0 Z " fill="#0F59A3" transform="translate(93,73)"/>
<path d="M0 0 C0.99 0 1.98 0 3 0 C1.62845496 2.95409701 0.01136276 5.44008376 -2 8 C-2.99 7.67 -3.98 7.34 -5 7 C-4.24172908 5.82512964 -3.46792245 4.66027408 -2.6875 3.5 C-2.25824219 2.8503125 -1.82898438 2.200625 -1.38671875 1.53125 C-0.70029297 0.77328125 -0.70029297 0.77328125 0 0 Z " fill="#0E58B2" transform="translate(173,47)"/>
<path d="M0 0 C0.33 0 0.66 0 1 0 C1.25 2.75 1.25 2.75 1 6 C-1 8.375 -1 8.375 -3 10 C-3.23226952 6.59338044 -3.35720302 4.59016151 -1.5625 1.625 C-0.7890625 0.820625 -0.7890625 0.820625 0 0 Z " fill="#0764D2" transform="translate(193,39)"/>
<path d="M0 0 C0.33 0.66 0.66 1.32 1 2 C1.99 2.33 2.98 2.66 4 3 C5.71054387 5.21593183 6.75321724 7.46190652 8 10 C7.67 10.66 7.34 11.32 7 12 C3.39345961 9.59563974 3.14547068 8.05320393 2 4 C1.34 4 0.68 4 0 4 C0 2.68 0 1.36 0 0 Z " fill="#0C5C9E" transform="translate(69,13)"/>
<path d="M0 0 C0.99 0 1.98 0 3 0 C2.67 3.96 2.34 7.92 2 12 C-1 9 -1 9 -1.07421875 6.73828125 C-0.94660156 5.93777344 -0.81898437 5.13726562 -0.6875 4.3125 C-0.56761719 3.50425781 -0.44773438 2.69601563 -0.32421875 1.86328125 C-0.21722656 1.24839844 -0.11023437 0.63351563 0 0 Z " fill="#084F99" transform="translate(43,44)"/>
<path d="M0 0 C1.09570312 0.00902344 2.19140625 0.01804688 3.3203125 0.02734375 C4.16335938 0.03894531 5.00640625 0.05054688 5.875 0.0625 C6.205 1.3825 6.535 2.7025 6.875 4.0625 C6.38 3.7325 5.885 3.4025 5.375 3.0625 C0.93926798 1.28820719 -3.59758828 1.55336276 -8.125 3.0625 C-8.125 2.4025 -8.125 1.7425 -8.125 1.0625 C-5.36047967 -0.31976016 -3.0788637 -0.03275387 0 0 Z " fill="#320891" transform="translate(340.125,33.9375)"/>
<path d="M0 0 C2.5132982 2.5132982 2 3.62447307 2 7 C2.66 7.33 3.32 7.66 4 8 C1 8 1 8 -1.1875 6 C-1.785625 5.34 -2.38375 4.68 -3 4 C-2.34 3.67 -1.68 3.34 -1 3 C-0.67 2.01 -0.34 1.02 0 0 Z " fill="#0B72CA" transform="translate(17,61)"/>
<path d="M0 0 C0.33 0 0.66 0 1 0 C1.125 2.875 1.125 2.875 1 6 C0.34 6.66 -0.32 7.32 -1 8 C-2.32 8 -3.64 8 -5 8 C-4.67 6.68 -4.34 5.36 -4 4 C-4 4.66 -4 5.32 -4 6 C-3.34 6 -2.68 6 -2 6 C-1.34 4.02 -0.68 2.04 0 0 Z " fill="#0D79D3" transform="translate(63,44)"/>
<path d="M0 0 C1.47919922 0.06960937 1.47919922 0.06960937 2.98828125 0.140625 C3.98214844 0.17671875 4.97601563 0.2128125 6 0.25 C7.13888672 0.31960937 7.13888672 0.31960937 8.30078125 0.390625 C8.30078125 0.720625 8.30078125 1.050625 8.30078125 1.390625 C7.10453125 1.514375 5.90828125 1.638125 4.67578125 1.765625 C1.02481312 2.21387554 -2.24446774 3.09509337 -5.69921875 4.390625 C-4.03190196 1.4998505 -3.38689549 0.49014407 0 0 Z " fill="#650BE1" transform="translate(382.69921875,22.609375)"/>
<path d="M0 0 C2.31 0 4.62 0 7 0 C3.25 2 3.25 2 1 2 C0.34 3.65 -0.32 5.3 -1 7 C-1.33 7 -1.66 7 -2 7 C-2 5.35 -2 3.7 -2 2 C-1.34 2 -0.68 2 0 2 C0 1.34 0 0.68 0 0 Z " fill="#2A1FA9" transform="translate(277,50)"/>
<path d="M0 0 C1.98 0.495 1.98 0.495 4 1 C3.34 1.66 2.68 2.32 2 3 C1.35232207 5.57061311 1.35232207 5.57061311 1 8 C0.34 8 -0.32 8 -1 8 C-1.125 2.25 -1.125 2.25 0 0 Z " fill="#3C10AE" transform="translate(328,37)"/>
<path d="M0 0 C0.33 0.66 0.66 1.32 1 2 C2.32 1.67 3.64 1.34 5 1 C3.35 3.64 1.7 6.28 0 9 C-0.98150241 6.05549278 -1.1613058 4.06481021 -1 1 C-0.67 0.67 -0.34 0.34 0 0 Z " fill="#0D73BD" transform="translate(24,20)"/>
<path d="M0 0 C3.3 0.33 6.6 0.66 10 1 C6.3558226 3.4294516 4.28758728 3.16179575 0 3 C0 2.01 0 1.02 0 0 Z " fill="#3620C5" transform="translate(279,64)"/>
<path d="M0 0 C4.95 0 9.9 0 15 0 C15 0.33 15 0.66 15 1 C13.22932584 1.16834933 11.45845388 1.33461909 9.6875 1.5 C8.70136719 1.5928125 7.71523437 1.685625 6.69921875 1.78125 C4 2 4 2 1 2 C0.67 1.34 0.34 0.68 0 0 Z " fill="#2942F9" transform="translate(223,64)"/>
<path d="M0 0 C3.2542015 2.83430453 4.5206753 4.68607774 5 9 C2.5 6.75 2.5 6.75 0 4 C0 2.68 0 1.36 0 0 Z " fill="#2F1BA2" transform="translate(302,27)"/>
<path d="M0 0 C1.875 0.3125 1.875 0.3125 4 1 C6.4294516 4.6441774 6.16179575 6.71241272 6 11 C5.67 11 5.34 11 5 11 C4.67 8.36 4.34 5.72 4 3 C3.01 3 2.02 3 1 3 C0.67 2.01 0.34 1.02 0 0 Z " fill="#0F5F9B" transform="translate(148,1)"/>
<path d="M0 0 C0.66 0.33 1.32 0.66 2 1 C0.69593116 3.01920337 -0.63823419 5.01924973 -2 7 C-2.33 7 -2.66 7 -3 7 C-3 5.02 -3 3.04 -3 1 C-2.01 0.67 -1.02 0.34 0 0 Z " fill="#440AA2" transform="translate(383,36)"/>
<path d="M0 0 C1.32 0 2.64 0 4 0 C5.06775224 1.96466413 6.06553465 3.96855359 7 6 C6.67 6.66 6.34 7.32 6 8 C4.02 5.36 2.04 2.72 0 0 Z " fill="#0C66A4" transform="translate(54,20)"/>
<path d="M0 0 C0.33 1.32 0.66 2.64 1 4 C1.66 4 2.32 4 3 4 C3 5.98 3 7.96 3 10 C2.34 9.67 1.68 9.34 1 9 C0.5859375 6.93359375 0.5859375 6.93359375 0.375 4.4375 C0.30023438 3.61121094 0.22546875 2.78492188 0.1484375 1.93359375 C0.09945312 1.29550781 0.05046875 0.65742187 0 0 Z " fill="#0E62AC" transform="translate(85,57)"/>
<path d="M0 0 C1.65 0.33 3.3 0.66 5 1 C3.35 2.65 1.7 4.3 0 6 C-1.125 2.25 -1.125 2.25 0 0 Z " fill="#0A85EC" transform="translate(46,44)"/>
</svg>
